<svg width="93" height="33" viewBox="0 0 93 33" fill="none" xmlns="http://www.w3.org/2000/svg">
<g clip-path="url(#clip0_7422_6584)">
<path fill-rule="evenodd" clip-rule="evenodd" d="M11.3071 7.60156V25.6016H6.5V7.60156H11.3071Z" fill="#666666"/>
<path fill-rule="evenodd" clip-rule="evenodd" d="M13.7109 7.60156H23.9261C27.2447 7.60156 29.9349 10.2879 29.9349 13.6016C29.9349 16.9153 27.2447 19.6016 23.9261 19.6016H18.518V25.6016H13.7109V7.60156ZM18.518 14.8016H23.9261C24.5898 14.8016 25.1278 14.2643 25.1278 13.6016C25.1278 12.9388 24.5898 12.4016 23.9261 12.4016H18.518V14.8016Z" fill="#666666"/>
<path fill-rule="evenodd" clip-rule="evenodd" d="M47.9634 7.60156V16.9016C47.9634 19.0555 49.712 20.8016 51.8691 20.8016C54.0262 20.8016 55.775 19.0555 55.775 16.9016V7.60156H60.5822V16.9016C60.5822 21.7065 56.6812 25.6016 51.8691 25.6016C47.0571 25.6016 43.1562 21.7065 43.1562 16.9016V7.60156H47.9634Z" fill="#666666"/>
<path fill-rule="evenodd" clip-rule="evenodd" d="M31.7368 16.0016C31.7368 11.3624 35.5032 7.60156 40.1492 7.60156H41.351V12.4016H40.1492C38.158 12.4016 36.5439 14.0134 36.5439 16.0016V16.6016C36.5439 21.5721 32.5085 25.6016 27.5306 25.6016H26.9297V20.8016H27.5306C29.8536 20.8016 31.7368 18.9212 31.7368 16.6016V16.0016Z" fill="#666666"/>
<path d="M87.6209 8.20039C87.6209 9.1945 86.814 10.0004 85.818 10.0004C84.8225 10.0004 84.0156 9.1945 84.0156 8.20039C84.0156 7.20628 84.8225 6.40039 85.818 6.40039C86.814 6.40039 87.6209 7.20628 87.6209 8.20039Z" fill="#666666"/>
<path d="M65.739 25.6016L68.0329 16.0103L69.7383 21.7804C70.755 25.222 75.637 25.222 76.6542 21.7804L78.3591 16.0103L80.653 25.6016H85.5951L81.9884 10.5197C81.1306 6.93316 76.069 6.80036 75.0236 10.3371L73.1962 16.5216L71.3684 10.3371C70.3234 6.80038 65.2614 6.93314 64.4036 10.5197L60.7969 25.6016H65.739Z" fill="#666666"/>
</g>
<defs>
<clipPath id="clip0_7422_6584">
<rect width="81.12" height="19.2" fill="white" transform="translate(6.5 6.40039)"/>
</clipPath>
</defs>
</svg>
