<svg width="270" height="270" viewBox="0 0 270 270" fill="none" xmlns="http://www.w3.org/2000/svg">
<g opacity="0.5">
<path d="M9.01727 7.00867L7.00864 5L5 7.00867L7.00864 9.01727L9.01727 7.00867Z" fill="#CCCCCC"/>
<path d="M23.201 7.00867L21.1924 5L19.1837 7.00867L21.1924 9.01727L23.201 7.00867Z" fill="#CCCCCC"/>
<path d="M37.3848 7.00867L35.3762 5L33.3675 7.00867L35.3762 9.01727L37.3848 7.00867Z" fill="#CCCCCC"/>
<path d="M51.5685 7.00867L49.5599 5L47.5513 7.00867L49.5599 9.01727L51.5685 7.00867Z" fill="#CCCCCC"/>
<path d="M65.7523 7.00867L63.7437 5L61.735 7.00867L63.7437 9.01727L65.7523 7.00867Z" fill="#CCCCCC"/>
<path d="M79.936 7.00867L77.9274 5L75.9188 7.00867L77.9274 9.01727L79.936 7.00867Z" fill="#CCCCCC"/>
<path d="M94.1198 7.00867L92.1111 5L90.1025 7.00867L92.1111 9.01727L94.1198 7.00867Z" fill="#CCCCCC"/>
<path d="M108.304 7.00867L106.295 5L104.286 7.00867L106.295 9.01727L108.304 7.00867Z" fill="#CCCCCC"/>
<path d="M122.487 7.00867L120.479 5L118.47 7.00867L120.479 9.01727L122.487 7.00867Z" fill="#CCCCCC"/>
<path d="M136.671 7.00867L134.662 5L132.654 7.00867L134.662 9.01727L136.671 7.00867Z" fill="#CCCCCC"/>
<path d="M150.855 7.00867L148.846 5L146.838 7.00867L148.846 9.01727L150.855 7.00867Z" fill="#CCCCCC"/>
<path d="M165.039 7.00867L163.03 5L161.021 7.00867L163.03 9.01727L165.039 7.00867Z" fill="#CCCCCC"/>
<path d="M179.222 7.00867L177.214 5L175.205 7.00867L177.214 9.01727L179.222 7.00867Z" fill="#CCCCCC"/>
<path d="M193.406 7.00867L191.397 5L189.389 7.00867L191.397 9.01727L193.406 7.00867Z" fill="#CCCCCC"/>
<path d="M207.59 7.00867L205.581 5L203.573 7.00867L205.581 9.01727L207.59 7.00867Z" fill="#CCCCCC"/>
<path d="M221.774 7.00867L219.765 5L217.756 7.00867L219.765 9.01727L221.774 7.00867Z" fill="#CCCCCC"/>
<path d="M235.957 7.00867L233.949 5L231.94 7.00867L233.949 9.01727L235.957 7.00867Z" fill="#CCCCCC"/>
<path d="M250.141 7.00867L248.132 5L246.124 7.00867L248.132 9.01727L250.141 7.00867Z" fill="#CCCCCC"/>
<path d="M264.325 7.00867L262.316 5L260.308 7.00867L262.316 9.01727L264.325 7.00867Z" fill="#CCCCCC"/>
<path d="M9.01727 21.1924L7.00864 19.1838L5 21.1924L7.00864 23.201L9.01727 21.1924Z" fill="#CCCCCC"/>
<path d="M23.201 21.1924L21.1924 19.1838L19.1837 21.1924L21.1924 23.201L23.201 21.1924Z" fill="#CCCCCC"/>
<path d="M37.3848 21.1924L35.3762 19.1838L33.3675 21.1924L35.3762 23.201L37.3848 21.1924Z" fill="#CCCCCC"/>
<path d="M51.5685 21.1924L49.5599 19.1838L47.5513 21.1924L49.5599 23.201L51.5685 21.1924Z" fill="#CCCCCC"/>
<path d="M65.7523 21.1924L63.7437 19.1838L61.735 21.1924L63.7437 23.201L65.7523 21.1924Z" fill="#CCCCCC"/>
<path d="M79.936 21.1924L77.9274 19.1838L75.9188 21.1924L77.9274 23.201L79.936 21.1924Z" fill="#CCCCCC"/>
<path d="M94.1198 21.1924L92.1111 19.1838L90.1025 21.1924L92.1111 23.201L94.1198 21.1924Z" fill="#CCCCCC"/>
<path d="M108.304 21.1924L106.295 19.1838L104.286 21.1924L106.295 23.201L108.304 21.1924Z" fill="#CCCCCC"/>
<path d="M122.487 21.1924L120.479 19.1838L118.47 21.1924L120.479 23.201L122.487 21.1924Z" fill="#CCCCCC"/>
<path d="M136.671 21.1924L134.662 19.1838L132.654 21.1924L134.662 23.201L136.671 21.1924Z" fill="#CCCCCC"/>
<path d="M150.855 21.1924L148.846 19.1838L146.838 21.1924L148.846 23.201L150.855 21.1924Z" fill="#CCCCCC"/>
<path d="M165.039 21.1924L163.03 19.1838L161.021 21.1924L163.03 23.201L165.039 21.1924Z" fill="#CCCCCC"/>
<path d="M179.222 21.1924L177.214 19.1838L175.205 21.1924L177.214 23.201L179.222 21.1924Z" fill="#CCCCCC"/>
<path d="M193.406 21.1924L191.397 19.1838L189.389 21.1924L191.397 23.201L193.406 21.1924Z" fill="#CCCCCC"/>
<path d="M207.59 21.1924L205.581 19.1838L203.573 21.1924L205.581 23.201L207.59 21.1924Z" fill="#CCCCCC"/>
<path d="M221.774 21.1924L219.765 19.1838L217.756 21.1924L219.765 23.201L221.774 21.1924Z" fill="#CCCCCC"/>
<path d="M235.957 21.1924L233.949 19.1838L231.94 21.1924L233.949 23.201L235.957 21.1924Z" fill="#CCCCCC"/>
<path d="M250.141 21.1924L248.132 19.1838L246.124 21.1924L248.132 23.201L250.141 21.1924Z" fill="#CCCCCC"/>
<path d="M264.325 21.1924L262.316 19.1838L260.308 21.1924L262.316 23.201L264.325 21.1924Z" fill="#CCCCCC"/>
<path d="M9.01727 35.3762L7.00864 33.3675L5 35.3762L7.00864 37.3848L9.01727 35.3762Z" fill="#CCCCCC"/>
<path d="M23.201 35.3762L21.1924 33.3675L19.1837 35.3762L21.1924 37.3848L23.201 35.3762Z" fill="#CCCCCC"/>
<path d="M37.3848 35.3762L35.3762 33.3675L33.3675 35.3762L35.3762 37.3848L37.3848 35.3762Z" fill="#CCCCCC"/>
<path d="M51.5685 35.3762L49.5599 33.3675L47.5513 35.3762L49.5599 37.3848L51.5685 35.3762Z" fill="#CCCCCC"/>
<path d="M65.7523 35.3762L63.7437 33.3675L61.735 35.3762L63.7437 37.3848L65.7523 35.3762Z" fill="#CCCCCC"/>
<path d="M79.936 35.3762L77.9274 33.3675L75.9188 35.3762L77.9274 37.3848L79.936 35.3762Z" fill="#CCCCCC"/>
<path d="M94.1198 35.3762L92.1111 33.3675L90.1025 35.3762L92.1111 37.3848L94.1198 35.3762Z" fill="#CCCCCC"/>
<path d="M108.304 35.3762L106.295 33.3675L104.286 35.3762L106.295 37.3848L108.304 35.3762Z" fill="#CCCCCC"/>
<path d="M122.487 35.3762L120.479 33.3675L118.47 35.3762L120.479 37.3848L122.487 35.3762Z" fill="#CCCCCC"/>
<path d="M136.671 35.3762L134.662 33.3675L132.654 35.3762L134.662 37.3848L136.671 35.3762Z" fill="#CCCCCC"/>
<path d="M150.855 35.3762L148.846 33.3675L146.838 35.3762L148.846 37.3848L150.855 35.3762Z" fill="#CCCCCC"/>
<path d="M165.039 35.3762L163.03 33.3675L161.021 35.3762L163.03 37.3848L165.039 35.3762Z" fill="#CCCCCC"/>
<path d="M179.222 35.3762L177.214 33.3675L175.205 35.3762L177.214 37.3848L179.222 35.3762Z" fill="#CCCCCC"/>
<path d="M193.406 35.3762L191.397 33.3675L189.389 35.3762L191.397 37.3848L193.406 35.3762Z" fill="#CCCCCC"/>
<path d="M207.59 35.3762L205.581 33.3675L203.573 35.3762L205.581 37.3848L207.59 35.3762Z" fill="#CCCCCC"/>
<path d="M221.774 35.3762L219.765 33.3675L217.756 35.3762L219.765 37.3848L221.774 35.3762Z" fill="#CCCCCC"/>
<path d="M235.957 35.3762L233.949 33.3675L231.94 35.3762L233.949 37.3848L235.957 35.3762Z" fill="#CCCCCC"/>
<path d="M250.141 35.3762L248.132 33.3675L246.124 35.3762L248.132 37.3848L250.141 35.3762Z" fill="#CCCCCC"/>
<path d="M264.325 35.3762L262.316 33.3675L260.308 35.3762L262.316 37.3848L264.325 35.3762Z" fill="#CCCCCC"/>
<path d="M9.01727 49.5599L7.00864 47.5513L5 49.5599L7.00864 51.5685L9.01727 49.5599Z" fill="#CCCCCC"/>
<path d="M23.201 49.5599L21.1924 47.5513L19.1837 49.5599L21.1924 51.5685L23.201 49.5599Z" fill="#CCCCCC"/>
<path d="M37.3848 49.5599L35.3762 47.5513L33.3675 49.5599L35.3762 51.5685L37.3848 49.5599Z" fill="#CCCCCC"/>
<path d="M51.5685 49.5599L49.5599 47.5513L47.5513 49.5599L49.5599 51.5685L51.5685 49.5599Z" fill="#CCCCCC"/>
<path d="M65.7523 49.5599L63.7437 47.5513L61.735 49.5599L63.7437 51.5685L65.7523 49.5599Z" fill="#CCCCCC"/>
<path d="M79.936 49.5599L77.9274 47.5513L75.9188 49.5599L77.9274 51.5685L79.936 49.5599Z" fill="#CCCCCC"/>
<path d="M94.1198 49.5599L92.1111 47.5513L90.1025 49.5599L92.1111 51.5685L94.1198 49.5599Z" fill="#CCCCCC"/>
<path d="M108.304 49.5599L106.295 47.5513L104.286 49.5599L106.295 51.5685L108.304 49.5599Z" fill="#CCCCCC"/>
<path d="M122.487 49.5599L120.479 47.5513L118.47 49.5599L120.479 51.5685L122.487 49.5599Z" fill="#CCCCCC"/>
<path d="M136.671 49.5599L134.662 47.5513L132.654 49.5599L134.662 51.5685L136.671 49.5599Z" fill="#CCCCCC"/>
<path d="M150.855 49.5599L148.846 47.5513L146.838 49.5599L148.846 51.5685L150.855 49.5599Z" fill="#CCCCCC"/>
<path d="M165.039 49.5599L163.03 47.5513L161.021 49.5599L163.03 51.5685L165.039 49.5599Z" fill="#CCCCCC"/>
<path d="M179.222 49.5599L177.214 47.5513L175.205 49.5599L177.214 51.5685L179.222 49.5599Z" fill="#CCCCCC"/>
<path d="M193.406 49.5599L191.397 47.5513L189.389 49.5599L191.397 51.5685L193.406 49.5599Z" fill="#CCCCCC"/>
<path d="M207.59 49.5599L205.581 47.5513L203.573 49.5599L205.581 51.5685L207.59 49.5599Z" fill="#CCCCCC"/>
<path d="M221.774 49.5599L219.765 47.5513L217.756 49.5599L219.765 51.5685L221.774 49.5599Z" fill="#CCCCCC"/>
<path d="M235.957 49.5599L233.949 47.5513L231.94 49.5599L233.949 51.5685L235.957 49.5599Z" fill="#CCCCCC"/>
<path d="M250.141 49.5599L248.132 47.5513L246.124 49.5599L248.132 51.5685L250.141 49.5599Z" fill="#CCCCCC"/>
<path d="M264.325 49.5599L262.316 47.5513L260.308 49.5599L262.316 51.5685L264.325 49.5599Z" fill="#CCCCCC"/>
<path d="M9.01727 63.7437L7.00864 61.735L5 63.7437L7.00864 65.7523L9.01727 63.7437Z" fill="#CCCCCC"/>
<path d="M23.201 63.7437L21.1924 61.735L19.1837 63.7437L21.1924 65.7523L23.201 63.7437Z" fill="#CCCCCC"/>
<path d="M37.3848 63.7437L35.3762 61.735L33.3675 63.7437L35.3762 65.7523L37.3848 63.7437Z" fill="#CCCCCC"/>
<path d="M51.5685 63.7437L49.5599 61.735L47.5513 63.7437L49.5599 65.7523L51.5685 63.7437Z" fill="#CCCCCC"/>
<path d="M65.7523 63.7437L63.7437 61.735L61.735 63.7437L63.7437 65.7523L65.7523 63.7437Z" fill="#CCCCCC"/>
<path d="M79.936 63.7437L77.9274 61.735L75.9188 63.7437L77.9274 65.7523L79.936 63.7437Z" fill="#CCCCCC"/>
<path d="M94.1198 63.7437L92.1111 61.735L90.1025 63.7437L92.1111 65.7523L94.1198 63.7437Z" fill="#CCCCCC"/>
<path d="M108.304 63.7437L106.295 61.735L104.286 63.7437L106.295 65.7523L108.304 63.7437Z" fill="#CCCCCC"/>
<path d="M122.487 63.7437L120.479 61.735L118.47 63.7437L120.479 65.7523L122.487 63.7437Z" fill="#CCCCCC"/>
<path d="M136.671 63.7437L134.662 61.735L132.654 63.7437L134.662 65.7523L136.671 63.7437Z" fill="#CCCCCC"/>
<path d="M150.855 63.7437L148.846 61.735L146.838 63.7437L148.846 65.7523L150.855 63.7437Z" fill="#CCCCCC"/>
<path d="M165.039 63.7437L163.03 61.735L161.021 63.7437L163.03 65.7523L165.039 63.7437Z" fill="#CCCCCC"/>
<path d="M179.222 63.7437L177.214 61.735L175.205 63.7437L177.214 65.7523L179.222 63.7437Z" fill="#CCCCCC"/>
<path d="M193.406 63.7437L191.397 61.735L189.389 63.7437L191.397 65.7523L193.406 63.7437Z" fill="#CCCCCC"/>
<path d="M207.59 63.7437L205.581 61.735L203.573 63.7437L205.581 65.7523L207.59 63.7437Z" fill="#CCCCCC"/>
<path d="M221.774 63.7437L219.765 61.735L217.756 63.7437L219.765 65.7523L221.774 63.7437Z" fill="#CCCCCC"/>
<path d="M235.957 63.7437L233.949 61.735L231.94 63.7437L233.949 65.7523L235.957 63.7437Z" fill="#CCCCCC"/>
<path d="M250.141 63.7437L248.132 61.735L246.124 63.7437L248.132 65.7523L250.141 63.7437Z" fill="#CCCCCC"/>
<path d="M264.325 63.7437L262.316 61.735L260.308 63.7437L262.316 65.7523L264.325 63.7437Z" fill="#CCCCCC"/>
<path d="M9.01727 77.9274L7.00864 75.9188L5 77.9274L7.00864 79.936L9.01727 77.9274Z" fill="#CCCCCC"/>
<path d="M23.201 77.9274L21.1924 75.9188L19.1837 77.9274L21.1924 79.936L23.201 77.9274Z" fill="#CCCCCC"/>
<path d="M37.3848 77.9274L35.3762 75.9188L33.3675 77.9274L35.3762 79.936L37.3848 77.9274Z" fill="#CCCCCC"/>
<path d="M51.5685 77.9274L49.5599 75.9188L47.5513 77.9274L49.5599 79.936L51.5685 77.9274Z" fill="#CCCCCC"/>
<path d="M65.7523 77.9274L63.7437 75.9188L61.735 77.9274L63.7437 79.936L65.7523 77.9274Z" fill="#CCCCCC"/>
<path d="M79.936 77.9274L77.9274 75.9188L75.9188 77.9274L77.9274 79.936L79.936 77.9274Z" fill="#CCCCCC"/>
<path d="M94.1198 77.9274L92.1111 75.9188L90.1025 77.9274L92.1111 79.936L94.1198 77.9274Z" fill="#CCCCCC"/>
<path d="M108.304 77.9274L106.295 75.9188L104.286 77.9274L106.295 79.936L108.304 77.9274Z" fill="#CCCCCC"/>
<path d="M122.487 77.9274L120.479 75.9188L118.47 77.9274L120.479 79.936L122.487 77.9274Z" fill="#CCCCCC"/>
<path d="M136.671 77.9274L134.662 75.9188L132.654 77.9274L134.662 79.936L136.671 77.9274Z" fill="#CCCCCC"/>
<path d="M150.855 77.9274L148.846 75.9188L146.838 77.9274L148.846 79.936L150.855 77.9274Z" fill="#CCCCCC"/>
<path d="M165.039 77.9274L163.03 75.9188L161.021 77.9274L163.03 79.936L165.039 77.9274Z" fill="#CCCCCC"/>
<path d="M179.222 77.9274L177.214 75.9188L175.205 77.9274L177.214 79.936L179.222 77.9274Z" fill="#CCCCCC"/>
<path d="M193.406 77.9274L191.397 75.9188L189.389 77.9274L191.397 79.936L193.406 77.9274Z" fill="#CCCCCC"/>
<path d="M207.59 77.9274L205.581 75.9188L203.573 77.9274L205.581 79.936L207.59 77.9274Z" fill="#CCCCCC"/>
<path d="M221.774 77.9274L219.765 75.9188L217.756 77.9274L219.765 79.936L221.774 77.9274Z" fill="#CCCCCC"/>
<path d="M235.957 77.9274L233.949 75.9188L231.94 77.9274L233.949 79.936L235.957 77.9274Z" fill="#CCCCCC"/>
<path d="M250.141 77.9274L248.132 75.9188L246.124 77.9274L248.132 79.936L250.141 77.9274Z" fill="#CCCCCC"/>
<path d="M264.325 77.9274L262.316 75.9188L260.308 77.9274L262.316 79.936L264.325 77.9274Z" fill="#CCCCCC"/>
<path d="M9.01727 92.1111L7.00864 90.1025L5 92.1111L7.00864 94.1198L9.01727 92.1111Z" fill="#CCCCCC"/>
<path d="M23.201 92.1111L21.1924 90.1025L19.1837 92.1111L21.1924 94.1198L23.201 92.1111Z" fill="#CCCCCC"/>
<path d="M37.3848 92.1111L35.3762 90.1025L33.3675 92.1111L35.3762 94.1198L37.3848 92.1111Z" fill="#CCCCCC"/>
<path d="M51.5685 92.1111L49.5599 90.1025L47.5513 92.1111L49.5599 94.1198L51.5685 92.1111Z" fill="#CCCCCC"/>
<path d="M65.7523 92.1111L63.7437 90.1025L61.735 92.1111L63.7437 94.1198L65.7523 92.1111Z" fill="#CCCCCC"/>
<path d="M79.936 92.1111L77.9274 90.1025L75.9188 92.1111L77.9274 94.1198L79.936 92.1111Z" fill="#CCCCCC"/>
<path d="M94.1198 92.1111L92.1111 90.1025L90.1025 92.1111L92.1111 94.1198L94.1198 92.1111Z" fill="#CCCCCC"/>
<path d="M108.304 92.1111L106.295 90.1025L104.286 92.1111L106.295 94.1198L108.304 92.1111Z" fill="#CCCCCC"/>
<path d="M122.487 92.1111L120.479 90.1025L118.47 92.1111L120.479 94.1198L122.487 92.1111Z" fill="#CCCCCC"/>
<path d="M136.671 92.1111L134.662 90.1025L132.654 92.1111L134.662 94.1198L136.671 92.1111Z" fill="#CCCCCC"/>
<path d="M150.855 92.1111L148.846 90.1025L146.838 92.1111L148.846 94.1198L150.855 92.1111Z" fill="#CCCCCC"/>
<path d="M165.039 92.1111L163.03 90.1025L161.021 92.1111L163.03 94.1198L165.039 92.1111Z" fill="#CCCCCC"/>
<path d="M179.222 92.1111L177.214 90.1025L175.205 92.1111L177.214 94.1198L179.222 92.1111Z" fill="#CCCCCC"/>
<path d="M193.406 92.1111L191.397 90.1025L189.389 92.1111L191.397 94.1198L193.406 92.1111Z" fill="#CCCCCC"/>
<path d="M207.59 92.1111L205.581 90.1025L203.573 92.1111L205.581 94.1198L207.59 92.1111Z" fill="#CCCCCC"/>
<path d="M221.774 92.1111L219.765 90.1025L217.756 92.1111L219.765 94.1198L221.774 92.1111Z" fill="#CCCCCC"/>
<path d="M235.957 92.1111L233.949 90.1025L231.94 92.1111L233.949 94.1198L235.957 92.1111Z" fill="#CCCCCC"/>
<path d="M250.141 92.1111L248.132 90.1025L246.124 92.1111L248.132 94.1198L250.141 92.1111Z" fill="#CCCCCC"/>
<path d="M264.325 92.1111L262.316 90.1025L260.308 92.1111L262.316 94.1198L264.325 92.1111Z" fill="#CCCCCC"/>
<path d="M9.01727 106.295L7.00864 104.286L5 106.295L7.00864 108.304L9.01727 106.295Z" fill="#CCCCCC"/>
<path d="M23.201 106.295L21.1924 104.286L19.1837 106.295L21.1924 108.304L23.201 106.295Z" fill="#CCCCCC"/>
<path d="M37.3848 106.295L35.3762 104.286L33.3675 106.295L35.3762 108.304L37.3848 106.295Z" fill="#CCCCCC"/>
<path d="M51.5685 106.295L49.5599 104.286L47.5513 106.295L49.5599 108.304L51.5685 106.295Z" fill="#CCCCCC"/>
<path d="M65.7523 106.295L63.7437 104.286L61.735 106.295L63.7437 108.304L65.7523 106.295Z" fill="#CCCCCC"/>
<path d="M79.936 106.295L77.9274 104.286L75.9188 106.295L77.9274 108.304L79.936 106.295Z" fill="#CCCCCC"/>
<path d="M94.1198 106.295L92.1111 104.286L90.1025 106.295L92.1111 108.304L94.1198 106.295Z" fill="#CCCCCC"/>
<path d="M108.304 106.295L106.295 104.286L104.286 106.295L106.295 108.304L108.304 106.295Z" fill="#CCCCCC"/>
<path d="M122.487 106.295L120.479 104.286L118.47 106.295L120.479 108.304L122.487 106.295Z" fill="#CCCCCC"/>
<path d="M136.671 106.295L134.662 104.286L132.654 106.295L134.662 108.304L136.671 106.295Z" fill="#CCCCCC"/>
<path d="M150.855 106.295L148.846 104.286L146.838 106.295L148.846 108.304L150.855 106.295Z" fill="#CCCCCC"/>
<path d="M165.039 106.295L163.03 104.286L161.021 106.295L163.03 108.304L165.039 106.295Z" fill="#CCCCCC"/>
<path d="M179.222 106.295L177.214 104.286L175.205 106.295L177.214 108.304L179.222 106.295Z" fill="#CCCCCC"/>
<path d="M193.406 106.295L191.397 104.286L189.389 106.295L191.397 108.304L193.406 106.295Z" fill="#CCCCCC"/>
<path d="M207.59 106.295L205.581 104.286L203.573 106.295L205.581 108.304L207.59 106.295Z" fill="#CCCCCC"/>
<path d="M221.774 106.295L219.765 104.286L217.756 106.295L219.765 108.304L221.774 106.295Z" fill="#CCCCCC"/>
<path d="M235.957 106.295L233.949 104.286L231.94 106.295L233.949 108.304L235.957 106.295Z" fill="#CCCCCC"/>
<path d="M250.141 106.295L248.132 104.286L246.124 106.295L248.132 108.304L250.141 106.295Z" fill="#CCCCCC"/>
<path d="M264.325 106.295L262.316 104.286L260.308 106.295L262.316 108.304L264.325 106.295Z" fill="#CCCCCC"/>
<path d="M9.01727 120.479L7.00864 118.47L5 120.479L7.00864 122.487L9.01727 120.479Z" fill="#CCCCCC"/>
<path d="M23.201 120.479L21.1924 118.47L19.1837 120.479L21.1924 122.487L23.201 120.479Z" fill="#CCCCCC"/>
<path d="M37.3848 120.479L35.3762 118.47L33.3675 120.479L35.3762 122.487L37.3848 120.479Z" fill="#CCCCCC"/>
<path d="M51.5685 120.479L49.5599 118.47L47.5513 120.479L49.5599 122.487L51.5685 120.479Z" fill="#CCCCCC"/>
<path d="M65.7523 120.479L63.7437 118.47L61.735 120.479L63.7437 122.487L65.7523 120.479Z" fill="#CCCCCC"/>
<path d="M79.936 120.479L77.9274 118.47L75.9188 120.479L77.9274 122.487L79.936 120.479Z" fill="#CCCCCC"/>
<path d="M94.1198 120.479L92.1111 118.47L90.1025 120.479L92.1111 122.487L94.1198 120.479Z" fill="#CCCCCC"/>
<path d="M108.304 120.479L106.295 118.47L104.286 120.479L106.295 122.487L108.304 120.479Z" fill="#CCCCCC"/>
<path d="M122.487 120.479L120.479 118.47L118.47 120.479L120.479 122.487L122.487 120.479Z" fill="#CCCCCC"/>
<path d="M136.671 120.479L134.662 118.47L132.654 120.479L134.662 122.487L136.671 120.479Z" fill="#CCCCCC"/>
<path d="M150.855 120.479L148.846 118.47L146.838 120.479L148.846 122.487L150.855 120.479Z" fill="#CCCCCC"/>
<path d="M165.039 120.479L163.03 118.47L161.021 120.479L163.03 122.487L165.039 120.479Z" fill="#CCCCCC"/>
<path d="M179.222 120.479L177.214 118.47L175.205 120.479L177.214 122.487L179.222 120.479Z" fill="#CCCCCC"/>
<path d="M193.406 120.479L191.397 118.47L189.389 120.479L191.397 122.487L193.406 120.479Z" fill="#CCCCCC"/>
<path d="M207.59 120.479L205.581 118.47L203.573 120.479L205.581 122.487L207.59 120.479Z" fill="#CCCCCC"/>
<path d="M221.774 120.479L219.765 118.47L217.756 120.479L219.765 122.487L221.774 120.479Z" fill="#CCCCCC"/>
<path d="M235.957 120.479L233.949 118.47L231.94 120.479L233.949 122.487L235.957 120.479Z" fill="#CCCCCC"/>
<path d="M250.141 120.479L248.132 118.47L246.124 120.479L248.132 122.487L250.141 120.479Z" fill="#CCCCCC"/>
<path d="M264.325 120.479L262.316 118.47L260.308 120.479L262.316 122.487L264.325 120.479Z" fill="#CCCCCC"/>
<path d="M9.01727 134.662L7.00864 132.654L5 134.662L7.00864 136.671L9.01727 134.662Z" fill="#CCCCCC"/>
<path d="M23.201 134.662L21.1924 132.654L19.1837 134.662L21.1924 136.671L23.201 134.662Z" fill="#CCCCCC"/>
<path d="M37.3848 134.662L35.3762 132.654L33.3675 134.662L35.3762 136.671L37.3848 134.662Z" fill="#CCCCCC"/>
<path d="M51.5685 134.662L49.5599 132.654L47.5513 134.662L49.5599 136.671L51.5685 134.662Z" fill="#CCCCCC"/>
<path d="M65.7523 134.662L63.7437 132.654L61.735 134.662L63.7437 136.671L65.7523 134.662Z" fill="#CCCCCC"/>
<path d="M79.936 134.662L77.9274 132.654L75.9188 134.662L77.9274 136.671L79.936 134.662Z" fill="#CCCCCC"/>
<path d="M94.1198 134.662L92.1111 132.654L90.1025 134.662L92.1111 136.671L94.1198 134.662Z" fill="#CCCCCC"/>
<path d="M108.304 134.662L106.295 132.654L104.286 134.662L106.295 136.671L108.304 134.662Z" fill="#CCCCCC"/>
<path d="M122.487 134.662L120.479 132.654L118.47 134.662L120.479 136.671L122.487 134.662Z" fill="#CCCCCC"/>
<path d="M136.671 134.662L134.662 132.654L132.654 134.662L134.662 136.671L136.671 134.662Z" fill="#CCCCCC"/>
<path d="M150.855 134.662L148.846 132.654L146.838 134.662L148.846 136.671L150.855 134.662Z" fill="#CCCCCC"/>
<path d="M165.039 134.662L163.03 132.654L161.021 134.662L163.03 136.671L165.039 134.662Z" fill="#CCCCCC"/>
<path d="M179.222 134.662L177.214 132.654L175.205 134.662L177.214 136.671L179.222 134.662Z" fill="#CCCCCC"/>
<path d="M193.406 134.662L191.397 132.654L189.389 134.662L191.397 136.671L193.406 134.662Z" fill="#CCCCCC"/>
<path d="M207.59 134.662L205.581 132.654L203.573 134.662L205.581 136.671L207.59 134.662Z" fill="#CCCCCC"/>
<path d="M221.774 134.662L219.765 132.654L217.756 134.662L219.765 136.671L221.774 134.662Z" fill="#CCCCCC"/>
<path d="M235.957 134.662L233.949 132.654L231.94 134.662L233.949 136.671L235.957 134.662Z" fill="#CCCCCC"/>
<path d="M250.141 134.662L248.132 132.654L246.124 134.662L248.132 136.671L250.141 134.662Z" fill="#CCCCCC"/>
<path d="M264.325 134.662L262.316 132.654L260.308 134.662L262.316 136.671L264.325 134.662Z" fill="#CCCCCC"/>
<path d="M9.01727 148.846L7.00864 146.838L5 148.846L7.00864 150.855L9.01727 148.846Z" fill="#CCCCCC"/>
<path d="M23.201 148.846L21.1924 146.838L19.1837 148.846L21.1924 150.855L23.201 148.846Z" fill="#CCCCCC"/>
<path d="M37.3848 148.846L35.3762 146.838L33.3675 148.846L35.3762 150.855L37.3848 148.846Z" fill="#CCCCCC"/>
<path d="M51.5685 148.846L49.5599 146.838L47.5513 148.846L49.5599 150.855L51.5685 148.846Z" fill="#CCCCCC"/>
<path d="M65.7523 148.846L63.7437 146.838L61.735 148.846L63.7437 150.855L65.7523 148.846Z" fill="#CCCCCC"/>
<path d="M79.936 148.846L77.9274 146.838L75.9188 148.846L77.9274 150.855L79.936 148.846Z" fill="#CCCCCC"/>
<path d="M94.1198 148.846L92.1111 146.838L90.1025 148.846L92.1111 150.855L94.1198 148.846Z" fill="#CCCCCC"/>
<path d="M108.304 148.846L106.295 146.838L104.286 148.846L106.295 150.855L108.304 148.846Z" fill="#CCCCCC"/>
<path d="M122.487 148.846L120.479 146.838L118.47 148.846L120.479 150.855L122.487 148.846Z" fill="#CCCCCC"/>
<path d="M136.671 148.846L134.662 146.838L132.654 148.846L134.662 150.855L136.671 148.846Z" fill="#CCCCCC"/>
<path d="M150.855 148.846L148.846 146.838L146.838 148.846L148.846 150.855L150.855 148.846Z" fill="#CCCCCC"/>
<path d="M165.039 148.846L163.03 146.838L161.021 148.846L163.03 150.855L165.039 148.846Z" fill="#CCCCCC"/>
<path d="M179.222 148.846L177.214 146.838L175.205 148.846L177.214 150.855L179.222 148.846Z" fill="#CCCCCC"/>
<path d="M193.406 148.846L191.397 146.838L189.389 148.846L191.397 150.855L193.406 148.846Z" fill="#CCCCCC"/>
<path d="M207.59 148.846L205.581 146.838L203.573 148.846L205.581 150.855L207.59 148.846Z" fill="#CCCCCC"/>
<path d="M221.774 148.846L219.765 146.838L217.756 148.846L219.765 150.855L221.774 148.846Z" fill="#CCCCCC"/>
<path d="M235.957 148.846L233.949 146.838L231.94 148.846L233.949 150.855L235.957 148.846Z" fill="#CCCCCC"/>
<path d="M250.141 148.846L248.132 146.838L246.124 148.846L248.132 150.855L250.141 148.846Z" fill="#CCCCCC"/>
<path d="M264.325 148.846L262.316 146.838L260.308 148.846L262.316 150.855L264.325 148.846Z" fill="#CCCCCC"/>
<path d="M9.01727 163.03L7.00864 161.021L5 163.03L7.00864 165.039L9.01727 163.03Z" fill="#CCCCCC"/>
<path d="M23.201 163.03L21.1924 161.021L19.1837 163.03L21.1924 165.039L23.201 163.03Z" fill="#CCCCCC"/>
<path d="M37.3848 163.03L35.3762 161.021L33.3675 163.03L35.3762 165.039L37.3848 163.03Z" fill="#CCCCCC"/>
<path d="M51.5685 163.03L49.5599 161.021L47.5513 163.03L49.5599 165.039L51.5685 163.03Z" fill="#CCCCCC"/>
<path d="M65.7523 163.03L63.7437 161.021L61.735 163.03L63.7437 165.039L65.7523 163.03Z" fill="#CCCCCC"/>
<path d="M79.936 163.03L77.9274 161.021L75.9188 163.03L77.9274 165.039L79.936 163.03Z" fill="#CCCCCC"/>
<path d="M94.1198 163.03L92.1111 161.021L90.1025 163.03L92.1111 165.039L94.1198 163.03Z" fill="#CCCCCC"/>
<path d="M108.304 163.03L106.295 161.021L104.286 163.03L106.295 165.039L108.304 163.03Z" fill="#CCCCCC"/>
<path d="M122.487 163.03L120.479 161.021L118.47 163.03L120.479 165.039L122.487 163.03Z" fill="#CCCCCC"/>
<path d="M136.671 163.03L134.662 161.021L132.654 163.03L134.662 165.039L136.671 163.03Z" fill="#CCCCCC"/>
<path d="M150.855 163.03L148.846 161.021L146.838 163.03L148.846 165.039L150.855 163.03Z" fill="#CCCCCC"/>
<path d="M165.039 163.03L163.03 161.021L161.021 163.03L163.03 165.039L165.039 163.03Z" fill="#CCCCCC"/>
<path d="M179.222 163.03L177.214 161.021L175.205 163.03L177.214 165.039L179.222 163.03Z" fill="#CCCCCC"/>
<path d="M193.406 163.03L191.397 161.021L189.389 163.03L191.397 165.039L193.406 163.03Z" fill="#CCCCCC"/>
<path d="M207.59 163.03L205.581 161.021L203.573 163.03L205.581 165.039L207.59 163.03Z" fill="#CCCCCC"/>
<path d="M221.774 163.03L219.765 161.021L217.756 163.03L219.765 165.039L221.774 163.03Z" fill="#CCCCCC"/>
<path d="M235.957 163.03L233.949 161.021L231.94 163.03L233.949 165.039L235.957 163.03Z" fill="#CCCCCC"/>
<path d="M250.141 163.03L248.132 161.021L246.124 163.03L248.132 165.039L250.141 163.03Z" fill="#CCCCCC"/>
<path d="M264.325 163.03L262.316 161.021L260.308 163.03L262.316 165.039L264.325 163.03Z" fill="#CCCCCC"/>
<path d="M9.01727 177.214L7.00864 175.205L5 177.214L7.00864 179.222L9.01727 177.214Z" fill="#CCCCCC"/>
<path d="M23.201 177.214L21.1924 175.205L19.1837 177.214L21.1924 179.222L23.201 177.214Z" fill="#CCCCCC"/>
<path d="M37.3848 177.214L35.3762 175.205L33.3675 177.214L35.3762 179.222L37.3848 177.214Z" fill="#CCCCCC"/>
<path d="M51.5685 177.214L49.5599 175.205L47.5513 177.214L49.5599 179.222L51.5685 177.214Z" fill="#CCCCCC"/>
<path d="M65.7523 177.214L63.7437 175.205L61.735 177.214L63.7437 179.222L65.7523 177.214Z" fill="#CCCCCC"/>
<path d="M79.936 177.214L77.9274 175.205L75.9188 177.214L77.9274 179.222L79.936 177.214Z" fill="#CCCCCC"/>
<path d="M94.1198 177.214L92.1111 175.205L90.1025 177.214L92.1111 179.222L94.1198 177.214Z" fill="#CCCCCC"/>
<path d="M108.304 177.214L106.295 175.205L104.286 177.214L106.295 179.222L108.304 177.214Z" fill="#CCCCCC"/>
<path d="M122.487 177.214L120.479 175.205L118.47 177.214L120.479 179.222L122.487 177.214Z" fill="#CCCCCC"/>
<path d="M136.671 177.214L134.662 175.205L132.654 177.214L134.662 179.222L136.671 177.214Z" fill="#CCCCCC"/>
<path d="M150.855 177.214L148.846 175.205L146.838 177.214L148.846 179.222L150.855 177.214Z" fill="#CCCCCC"/>
<path d="M165.039 177.214L163.03 175.205L161.021 177.214L163.03 179.222L165.039 177.214Z" fill="#CCCCCC"/>
<path d="M179.222 177.214L177.214 175.205L175.205 177.214L177.214 179.222L179.222 177.214Z" fill="#CCCCCC"/>
<path d="M193.406 177.214L191.397 175.205L189.389 177.214L191.397 179.222L193.406 177.214Z" fill="#CCCCCC"/>
<path d="M207.59 177.214L205.581 175.205L203.573 177.214L205.581 179.222L207.59 177.214Z" fill="#CCCCCC"/>
<path d="M221.774 177.214L219.765 175.205L217.756 177.214L219.765 179.222L221.774 177.214Z" fill="#CCCCCC"/>
<path d="M235.957 177.214L233.949 175.205L231.94 177.214L233.949 179.222L235.957 177.214Z" fill="#CCCCCC"/>
<path d="M250.141 177.214L248.132 175.205L246.124 177.214L248.132 179.222L250.141 177.214Z" fill="#CCCCCC"/>
<path d="M264.325 177.214L262.316 175.205L260.308 177.214L262.316 179.222L264.325 177.214Z" fill="#CCCCCC"/>
<path d="M9.01727 191.397L7.00864 189.389L5 191.397L7.00864 193.406L9.01727 191.397Z" fill="#CCCCCC"/>
<path d="M23.201 191.397L21.1924 189.389L19.1837 191.397L21.1924 193.406L23.201 191.397Z" fill="#CCCCCC"/>
<path d="M37.3848 191.397L35.3762 189.389L33.3675 191.397L35.3762 193.406L37.3848 191.397Z" fill="#CCCCCC"/>
<path d="M51.5685 191.397L49.5599 189.389L47.5513 191.397L49.5599 193.406L51.5685 191.397Z" fill="#CCCCCC"/>
<path d="M65.7523 191.397L63.7437 189.389L61.735 191.397L63.7437 193.406L65.7523 191.397Z" fill="#CCCCCC"/>
<path d="M79.936 191.397L77.9274 189.389L75.9188 191.397L77.9274 193.406L79.936 191.397Z" fill="#CCCCCC"/>
<path d="M94.1198 191.397L92.1111 189.389L90.1025 191.397L92.1111 193.406L94.1198 191.397Z" fill="#CCCCCC"/>
<path d="M108.304 191.397L106.295 189.389L104.286 191.397L106.295 193.406L108.304 191.397Z" fill="#CCCCCC"/>
<path d="M122.487 191.397L120.479 189.389L118.47 191.397L120.479 193.406L122.487 191.397Z" fill="#CCCCCC"/>
<path d="M136.671 191.397L134.662 189.389L132.654 191.397L134.662 193.406L136.671 191.397Z" fill="#CCCCCC"/>
<path d="M150.855 191.397L148.846 189.389L146.838 191.397L148.846 193.406L150.855 191.397Z" fill="#CCCCCC"/>
<path d="M165.039 191.397L163.03 189.389L161.021 191.397L163.03 193.406L165.039 191.397Z" fill="#CCCCCC"/>
<path d="M179.222 191.397L177.214 189.389L175.205 191.397L177.214 193.406L179.222 191.397Z" fill="#CCCCCC"/>
<path d="M193.406 191.397L191.397 189.389L189.389 191.397L191.397 193.406L193.406 191.397Z" fill="#CCCCCC"/>
<path d="M207.59 191.397L205.581 189.389L203.573 191.397L205.581 193.406L207.59 191.397Z" fill="#CCCCCC"/>
<path d="M221.774 191.397L219.765 189.389L217.756 191.397L219.765 193.406L221.774 191.397Z" fill="#CCCCCC"/>
<path d="M235.957 191.397L233.949 189.389L231.94 191.397L233.949 193.406L235.957 191.397Z" fill="#CCCCCC"/>
<path d="M250.141 191.397L248.132 189.389L246.124 191.397L248.132 193.406L250.141 191.397Z" fill="#CCCCCC"/>
<path d="M264.325 191.397L262.316 189.389L260.308 191.397L262.316 193.406L264.325 191.397Z" fill="#CCCCCC"/>
<path d="M9.01727 205.581L7.00864 203.573L5 205.581L7.00864 207.59L9.01727 205.581Z" fill="#CCCCCC"/>
<path d="M23.201 205.581L21.1924 203.573L19.1837 205.581L21.1924 207.59L23.201 205.581Z" fill="#CCCCCC"/>
<path d="M37.3848 205.581L35.3762 203.573L33.3675 205.581L35.3762 207.59L37.3848 205.581Z" fill="#CCCCCC"/>
<path d="M51.5685 205.581L49.5599 203.573L47.5513 205.581L49.5599 207.59L51.5685 205.581Z" fill="#CCCCCC"/>
<path d="M65.7523 205.581L63.7437 203.573L61.735 205.581L63.7437 207.59L65.7523 205.581Z" fill="#CCCCCC"/>
<path d="M79.936 205.581L77.9274 203.573L75.9188 205.581L77.9274 207.59L79.936 205.581Z" fill="#CCCCCC"/>
<path d="M94.1198 205.581L92.1111 203.573L90.1025 205.581L92.1111 207.59L94.1198 205.581Z" fill="#CCCCCC"/>
<path d="M108.304 205.581L106.295 203.573L104.286 205.581L106.295 207.59L108.304 205.581Z" fill="#CCCCCC"/>
<path d="M122.487 205.581L120.479 203.573L118.47 205.581L120.479 207.59L122.487 205.581Z" fill="#CCCCCC"/>
<path d="M136.671 205.581L134.662 203.573L132.654 205.581L134.662 207.59L136.671 205.581Z" fill="#CCCCCC"/>
<path d="M150.855 205.581L148.846 203.573L146.838 205.581L148.846 207.59L150.855 205.581Z" fill="#CCCCCC"/>
<path d="M165.039 205.581L163.03 203.573L161.021 205.581L163.03 207.59L165.039 205.581Z" fill="#CCCCCC"/>
<path d="M179.222 205.581L177.214 203.573L175.205 205.581L177.214 207.59L179.222 205.581Z" fill="#CCCCCC"/>
<path d="M193.406 205.581L191.397 203.573L189.389 205.581L191.397 207.59L193.406 205.581Z" fill="#CCCCCC"/>
<path d="M207.59 205.581L205.581 203.573L203.573 205.581L205.581 207.59L207.59 205.581Z" fill="#CCCCCC"/>
<path d="M221.774 205.581L219.765 203.573L217.756 205.581L219.765 207.59L221.774 205.581Z" fill="#CCCCCC"/>
<path d="M235.957 205.581L233.949 203.573L231.94 205.581L233.949 207.59L235.957 205.581Z" fill="#CCCCCC"/>
<path d="M250.141 205.581L248.132 203.573L246.124 205.581L248.132 207.59L250.141 205.581Z" fill="#CCCCCC"/>
<path d="M264.325 205.581L262.316 203.573L260.308 205.581L262.316 207.59L264.325 205.581Z" fill="#CCCCCC"/>
<path d="M9.01727 219.768L7.00864 217.759L5 219.768L7.00864 221.776L9.01727 219.768Z" fill="#CCCCCC"/>
<path d="M23.201 219.768L21.1924 217.759L19.1837 219.768L21.1924 221.776L23.201 219.768Z" fill="#CCCCCC"/>
<path d="M37.3848 219.768L35.3762 217.759L33.3675 219.768L35.3762 221.776L37.3848 219.768Z" fill="#CCCCCC"/>
<path d="M51.5685 219.768L49.5599 217.759L47.5513 219.768L49.5599 221.776L51.5685 219.768Z" fill="#CCCCCC"/>
<path d="M65.7523 219.768L63.7437 217.759L61.735 219.768L63.7437 221.776L65.7523 219.768Z" fill="#CCCCCC"/>
<path d="M79.936 219.768L77.9274 217.759L75.9188 219.768L77.9274 221.776L79.936 219.768Z" fill="#CCCCCC"/>
<path d="M94.1198 219.768L92.1111 217.759L90.1025 219.768L92.1111 221.776L94.1198 219.768Z" fill="#CCCCCC"/>
<path d="M108.304 219.768L106.295 217.759L104.286 219.768L106.295 221.776L108.304 219.768Z" fill="#CCCCCC"/>
<path d="M122.487 219.768L120.479 217.759L118.47 219.768L120.479 221.776L122.487 219.768Z" fill="#CCCCCC"/>
<path d="M136.671 219.768L134.662 217.759L132.654 219.768L134.662 221.776L136.671 219.768Z" fill="#CCCCCC"/>
<path d="M150.855 219.768L148.846 217.759L146.838 219.768L148.846 221.776L150.855 219.768Z" fill="#CCCCCC"/>
<path d="M165.039 219.768L163.03 217.759L161.021 219.768L163.03 221.776L165.039 219.768Z" fill="#CCCCCC"/>
<path d="M179.222 219.768L177.214 217.759L175.205 219.768L177.214 221.776L179.222 219.768Z" fill="#CCCCCC"/>
<path d="M193.406 219.768L191.397 217.759L189.389 219.768L191.397 221.776L193.406 219.768Z" fill="#CCCCCC"/>
<path d="M207.59 219.768L205.581 217.759L203.573 219.768L205.581 221.776L207.59 219.768Z" fill="#CCCCCC"/>
<path d="M221.774 219.768L219.765 217.759L217.756 219.768L219.765 221.776L221.774 219.768Z" fill="#CCCCCC"/>
<path d="M235.957 219.768L233.949 217.759L231.94 219.768L233.949 221.776L235.957 219.768Z" fill="#CCCCCC"/>
<path d="M250.141 219.768L248.132 217.759L246.124 219.768L248.132 221.776L250.141 219.768Z" fill="#CCCCCC"/>
<path d="M264.325 219.768L262.316 217.759L260.308 219.768L262.316 221.776L264.325 219.768Z" fill="#CCCCCC"/>
<path d="M9.01727 233.951L7.00864 231.943L5 233.951L7.00864 235.96L9.01727 233.951Z" fill="#CCCCCC"/>
<path d="M23.201 233.951L21.1924 231.943L19.1837 233.951L21.1924 235.96L23.201 233.951Z" fill="#CCCCCC"/>
<path d="M37.3848 233.951L35.3762 231.943L33.3675 233.951L35.3762 235.96L37.3848 233.951Z" fill="#CCCCCC"/>
<path d="M51.5685 233.951L49.5599 231.943L47.5513 233.951L49.5599 235.96L51.5685 233.951Z" fill="#CCCCCC"/>
<path d="M65.7523 233.951L63.7437 231.943L61.735 233.951L63.7437 235.96L65.7523 233.951Z" fill="#CCCCCC"/>
<path d="M79.936 233.951L77.9274 231.943L75.9188 233.951L77.9274 235.96L79.936 233.951Z" fill="#CCCCCC"/>
<path d="M94.1198 233.951L92.1111 231.943L90.1025 233.951L92.1111 235.96L94.1198 233.951Z" fill="#CCCCCC"/>
<path d="M108.304 233.951L106.295 231.943L104.286 233.951L106.295 235.96L108.304 233.951Z" fill="#CCCCCC"/>
<path d="M122.487 233.951L120.479 231.943L118.47 233.951L120.479 235.96L122.487 233.951Z" fill="#CCCCCC"/>
<path d="M136.671 233.951L134.662 231.943L132.654 233.951L134.662 235.96L136.671 233.951Z" fill="#CCCCCC"/>
<path d="M150.855 233.951L148.846 231.943L146.838 233.951L148.846 235.96L150.855 233.951Z" fill="#CCCCCC"/>
<path d="M165.039 233.951L163.03 231.943L161.021 233.951L163.03 235.96L165.039 233.951Z" fill="#CCCCCC"/>
<path d="M179.222 233.951L177.214 231.943L175.205 233.951L177.214 235.96L179.222 233.951Z" fill="#CCCCCC"/>
<path d="M193.406 233.951L191.397 231.943L189.389 233.951L191.397 235.96L193.406 233.951Z" fill="#CCCCCC"/>
<path d="M207.59 233.951L205.581 231.943L203.573 233.951L205.581 235.96L207.59 233.951Z" fill="#CCCCCC"/>
<path d="M221.774 233.951L219.765 231.943L217.756 233.951L219.765 235.96L221.774 233.951Z" fill="#CCCCCC"/>
<path d="M235.957 233.951L233.949 231.943L231.94 233.951L233.949 235.96L235.957 233.951Z" fill="#CCCCCC"/>
<path d="M250.141 233.951L248.132 231.943L246.124 233.951L248.132 235.96L250.141 233.951Z" fill="#CCCCCC"/>
<path d="M264.325 233.951L262.316 231.943L260.308 233.951L262.316 235.96L264.325 233.951Z" fill="#CCCCCC"/>
<path d="M9.01727 248.135L7.00864 246.127L5 248.135L7.00864 250.144L9.01727 248.135Z" fill="#CCCCCC"/>
<path d="M23.201 248.135L21.1924 246.127L19.1837 248.135L21.1924 250.144L23.201 248.135Z" fill="#CCCCCC"/>
<path d="M37.3848 248.135L35.3762 246.127L33.3675 248.135L35.3762 250.144L37.3848 248.135Z" fill="#CCCCCC"/>
<path d="M51.5685 248.135L49.5599 246.127L47.5513 248.135L49.5599 250.144L51.5685 248.135Z" fill="#CCCCCC"/>
<path d="M65.7523 248.135L63.7437 246.127L61.735 248.135L63.7437 250.144L65.7523 248.135Z" fill="#CCCCCC"/>
<path d="M79.936 248.135L77.9274 246.127L75.9188 248.135L77.9274 250.144L79.936 248.135Z" fill="#CCCCCC"/>
<path d="M94.1198 248.135L92.1111 246.127L90.1025 248.135L92.1111 250.144L94.1198 248.135Z" fill="#CCCCCC"/>
<path d="M108.304 248.135L106.295 246.127L104.286 248.135L106.295 250.144L108.304 248.135Z" fill="#CCCCCC"/>
<path d="M122.487 248.135L120.479 246.127L118.47 248.135L120.479 250.144L122.487 248.135Z" fill="#CCCCCC"/>
<path d="M136.671 248.135L134.662 246.127L132.654 248.135L134.662 250.144L136.671 248.135Z" fill="#CCCCCC"/>
<path d="M150.855 248.135L148.846 246.127L146.838 248.135L148.846 250.144L150.855 248.135Z" fill="#CCCCCC"/>
<path d="M165.039 248.135L163.03 246.127L161.021 248.135L163.03 250.144L165.039 248.135Z" fill="#CCCCCC"/>
<path d="M179.222 248.135L177.214 246.127L175.205 248.135L177.214 250.144L179.222 248.135Z" fill="#CCCCCC"/>
<path d="M193.406 248.135L191.397 246.127L189.389 248.135L191.397 250.144L193.406 248.135Z" fill="#CCCCCC"/>
<path d="M207.59 248.135L205.581 246.127L203.573 248.135L205.581 250.144L207.59 248.135Z" fill="#CCCCCC"/>
<path d="M221.774 248.135L219.765 246.127L217.756 248.135L219.765 250.144L221.774 248.135Z" fill="#CCCCCC"/>
<path d="M235.957 248.135L233.949 246.127L231.94 248.135L233.949 250.144L235.957 248.135Z" fill="#CCCCCC"/>
<path d="M250.141 248.135L248.132 246.127L246.124 248.135L248.132 250.144L250.141 248.135Z" fill="#CCCCCC"/>
<path d="M264.325 248.135L262.316 246.127L260.308 248.135L262.316 250.144L264.325 248.135Z" fill="#CCCCCC"/>
<path d="M9.01727 262.319L7.00864 260.31L5 262.319L7.00864 264.328L9.01727 262.319Z" fill="#CCCCCC"/>
<path d="M23.201 262.319L21.1924 260.31L19.1837 262.319L21.1924 264.328L23.201 262.319Z" fill="#CCCCCC"/>
<path d="M37.3848 262.319L35.3762 260.31L33.3675 262.319L35.3762 264.328L37.3848 262.319Z" fill="#CCCCCC"/>
<path d="M51.5685 262.319L49.5599 260.31L47.5513 262.319L49.5599 264.328L51.5685 262.319Z" fill="#CCCCCC"/>
<path d="M65.7523 262.319L63.7437 260.31L61.735 262.319L63.7437 264.328L65.7523 262.319Z" fill="#CCCCCC"/>
<path d="M79.936 262.319L77.9274 260.31L75.9188 262.319L77.9274 264.328L79.936 262.319Z" fill="#CCCCCC"/>
<path d="M94.1198 262.319L92.1111 260.31L90.1025 262.319L92.1111 264.328L94.1198 262.319Z" fill="#CCCCCC"/>
<path d="M108.304 262.319L106.295 260.31L104.286 262.319L106.295 264.328L108.304 262.319Z" fill="#CCCCCC"/>
<path d="M122.487 262.319L120.479 260.31L118.47 262.319L120.479 264.328L122.487 262.319Z" fill="#CCCCCC"/>
<path d="M136.671 262.319L134.662 260.31L132.654 262.319L134.662 264.328L136.671 262.319Z" fill="#CCCCCC"/>
<path d="M150.855 262.319L148.846 260.31L146.838 262.319L148.846 264.328L150.855 262.319Z" fill="#CCCCCC"/>
<path d="M165.039 262.319L163.03 260.31L161.021 262.319L163.03 264.328L165.039 262.319Z" fill="#CCCCCC"/>
<path d="M179.222 262.319L177.214 260.31L175.205 262.319L177.214 264.328L179.222 262.319Z" fill="#CCCCCC"/>
<path d="M193.406 262.319L191.397 260.31L189.389 262.319L191.397 264.328L193.406 262.319Z" fill="#CCCCCC"/>
<path d="M207.59 262.319L205.581 260.31L203.573 262.319L205.581 264.328L207.59 262.319Z" fill="#CCCCCC"/>
<path d="M221.774 262.319L219.765 260.31L217.756 262.319L219.765 264.328L221.774 262.319Z" fill="#CCCCCC"/>
<path d="M235.957 262.319L233.949 260.31L231.94 262.319L233.949 264.328L235.957 262.319Z" fill="#CCCCCC"/>
<path d="M250.141 262.319L248.132 260.31L246.124 262.319L248.132 264.328L250.141 262.319Z" fill="#CCCCCC"/>
<path d="M264.325 262.319L262.316 260.31L260.308 262.319L262.316 264.328L264.325 262.319Z" fill="#CCCCCC"/>
</g>
</svg>
