<svg width="102" height="24" viewBox="0 0 102 24" fill="none" xmlns="http://www.w3.org/2000/svg">
<g clip-path="url(#clip0_7577_4725)">
<path d="M93.9268 8.8457C94.8916 8.8457 95.6674 9.14324 96.2538 9.73837C96.85 10.3241 97.1479 11.1459 97.1479 12.2039V16.8091H95.1612V12.4732C95.1612 11.8591 95.0055 11.3915 94.6932 11.0704C94.3809 10.7397 93.9552 10.5744 93.4161 10.5744C92.877 10.5744 92.4463 10.7397 92.1246 11.0704C91.8127 11.3915 91.6566 11.8591 91.6566 12.4732V16.8091H89.6698V12.4732C89.6698 11.8591 89.5137 11.3915 89.2014 11.0704C88.8895 10.7397 88.4638 10.5744 87.9247 10.5744C87.3757 10.5744 86.9406 10.7397 86.6188 11.0704C86.307 11.3915 86.1508 11.8591 86.1508 12.4732V16.8091H84.1641V8.95906H86.1508V9.90842C86.406 9.57781 86.7327 9.31802 87.13 9.12907C87.5368 8.94016 87.9814 8.8457 88.4638 8.8457C89.0785 8.8457 89.6271 8.97791 90.1099 9.24242C90.5923 9.49748 90.9658 9.8659 91.2309 10.3477C91.486 9.89425 91.855 9.53056 92.3374 9.2566C92.8293 8.98264 93.3594 8.8457 93.9268 8.8457Z" fill="#A3A3A3"/>
<path d="M82.703 8.95898V16.8091H80.7023V15.8172C80.4467 16.1572 80.111 16.4265 79.6947 16.6249C79.2879 16.8138 78.8433 16.9082 78.3609 16.9082C77.7462 16.9082 77.2022 16.7807 76.7292 16.5256C76.2563 16.2612 75.8823 15.8786 75.6083 15.3779C75.3432 14.8678 75.2109 14.2632 75.2109 13.5641V8.95898H77.1972V13.2808C77.1972 13.9043 77.3534 14.386 77.6657 14.7261C77.978 15.0567 78.4037 15.222 78.9428 15.222C79.4913 15.222 79.922 15.0567 80.2338 14.7261C80.5461 14.386 80.7023 13.9043 80.7023 13.2808V8.95898H82.703Z" fill="#A3A3A3"/>
<path d="M71.0511 16.9372C70.4081 16.9372 69.8307 16.8238 69.32 16.5971C68.8092 16.3609 68.4024 16.0445 68.0996 15.6477C67.8062 15.251 67.6455 14.8117 67.6172 14.3299H69.6179C69.6557 14.6322 69.8024 14.8826 70.058 15.0809C70.3226 15.2793 70.6493 15.3785 71.0367 15.3785C71.4152 15.3785 71.7086 15.3029 71.9169 15.1518C72.1343 15.0006 72.2432 14.807 72.2432 14.5708C72.2432 14.3157 72.1104 14.1268 71.8458 14.004C71.5902 13.8718 71.1789 13.7301 70.611 13.5789C70.0247 13.4372 69.5423 13.2908 69.1638 13.1397C68.7948 12.9885 68.4735 12.7571 68.199 12.4453C67.934 12.1336 67.8017 11.7132 67.8017 11.1842C67.8017 10.7497 67.9245 10.3529 68.1707 9.99393C68.4258 9.63497 68.7854 9.35156 69.2489 9.14375C69.7218 8.93594 70.2753 8.83203 70.9094 8.83203C71.8458 8.83203 72.5933 9.06819 73.1513 9.54051C73.7093 10.0034 74.0166 10.6316 74.0738 11.4251H72.1721C72.1437 11.1134 72.0114 10.8677 71.7747 10.6883C71.5479 10.4993 71.2401 10.4049 70.8527 10.4049C70.4931 10.4049 70.2141 10.471 70.0152 10.6032C69.8262 10.7355 69.7313 10.9197 69.7313 11.1559C69.7313 11.4204 69.864 11.6235 70.1286 11.7652C70.3937 11.8974 70.805 12.0344 71.3634 12.1761C71.9309 12.3178 72.3993 12.4642 72.7683 12.6154C73.1369 12.7665 73.4541 13.0027 73.7187 13.3238C73.9932 13.6356 74.135 14.0513 74.1444 14.5708C74.1444 15.0243 74.0166 15.4304 73.7615 15.7894C73.5153 16.1484 73.1558 16.4318 72.6828 16.6396C72.2193 16.838 71.6753 16.9372 71.0511 16.9372Z" fill="#A3A3A3"/>
<path d="M60.9082 10.0931C61.1638 9.73415 61.5139 9.43661 61.9585 9.20045C62.4125 8.95484 62.9278 8.83203 63.5051 8.83203C64.1765 8.83203 64.7822 8.99732 65.3213 9.32798C65.8699 9.65859 66.3005 10.1309 66.6128 10.7449C66.9341 11.3495 67.0952 12.0533 67.0952 12.8562C67.0952 13.6592 66.9341 14.3724 66.6128 14.9959C66.3005 15.6099 65.8699 16.087 65.3213 16.427C64.7822 16.7672 64.1765 16.9372 63.5051 16.9372C62.9278 16.9372 62.417 16.8191 61.9724 16.5829C61.5373 16.3468 61.1827 16.0492 60.9082 15.6902V20.5505H58.9219V8.95956H60.9082V10.0931ZM65.0657 12.8562C65.0657 12.3839 64.9667 11.9777 64.7678 11.6376C64.5788 11.2881 64.3232 11.0236 64.0015 10.8441C63.6896 10.6647 63.349 10.5749 62.98 10.5749C62.6204 10.5749 62.2798 10.6694 61.9585 10.8583C61.6462 11.0378 61.3906 11.3023 61.1921 11.6518C61.0027 12.0013 60.9082 12.4123 60.9082 12.8846C60.9082 13.3569 61.0027 13.7679 61.1921 14.1174C61.3906 14.4669 61.6462 14.7361 61.9585 14.925C62.2798 15.1045 62.6204 15.1943 62.98 15.1943C63.349 15.1943 63.6896 15.0998 64.0015 14.9109C64.3232 14.7219 64.5788 14.4527 64.7678 14.1032C64.9667 13.7537 65.0657 13.338 65.0657 12.8562Z" fill="#A3A3A3"/>
<path d="M56.4782 8.02502C56.1281 8.02502 55.8347 7.91639 55.5985 7.69913C55.3712 7.4724 55.2578 7.19373 55.2578 6.8631C55.2578 6.53247 55.3712 6.25852 55.5985 6.04125C55.8347 5.81453 56.1281 5.70117 56.4782 5.70117C56.8283 5.70117 57.1168 5.81453 57.3436 6.04125C57.5803 6.25852 57.6986 6.53247 57.6986 6.8631C57.6986 7.19373 57.5803 7.4724 57.3436 7.69913C57.1168 7.91639 56.8283 8.02502 56.4782 8.02502ZM57.4574 8.96025V16.8103H55.4707V8.96025H57.4574Z" fill="#A3A3A3"/>
<path d="M50.4091 16.9372C49.6527 16.9372 48.9713 16.7719 48.3659 16.4412C47.7604 16.1012 47.2827 15.6241 46.9327 15.0101C46.5922 14.3961 46.4219 13.6875 46.4219 12.8846C46.4219 12.0816 46.5969 11.3731 46.9469 10.7591C47.3064 10.1451 47.7936 9.67277 48.4084 9.34215C49.0236 9.00204 49.7094 8.83203 50.4658 8.83203C51.2227 8.83203 51.9085 9.00204 52.5237 9.34215C53.1384 9.67277 53.6208 10.1451 53.9709 10.7591C54.3304 11.3731 54.51 12.0816 54.51 12.8846C54.51 13.6875 54.3254 14.3961 53.9569 15.0101C53.5973 15.6241 53.1055 16.1012 52.4809 16.4412C51.8662 16.7719 51.1755 16.9372 50.4091 16.9372ZM50.4091 15.2084C50.7687 15.2084 51.1044 15.1234 51.4167 14.9534C51.7384 14.7739 51.9936 14.5094 52.183 14.1599C52.372 13.8103 52.467 13.3853 52.467 12.8846C52.467 12.1383 52.2681 11.5668 51.8707 11.1701C51.4828 10.7638 51.0054 10.5608 50.4375 10.5608C49.87 10.5608 49.3921 10.7638 49.0042 11.1701C48.626 11.5668 48.4368 12.1383 48.4368 12.8846C48.4368 13.6309 48.6213 14.2071 48.9903 14.6133C49.3687 15.0101 49.8417 15.2084 50.4091 15.2084Z" fill="#A3A3A3"/>
<path d="M41.8545 16.9372C41.0977 16.9372 40.4166 16.7719 39.8112 16.4412C39.2058 16.1012 38.728 15.6241 38.378 15.0101C38.0375 14.3961 37.8672 13.6875 37.8672 12.8846C37.8672 12.0816 38.0422 11.3731 38.3922 10.7591C38.7517 10.1451 39.2389 9.67277 39.8538 9.34215C40.4686 9.00204 41.1545 8.83203 41.9113 8.83203C42.6681 8.83203 43.3539 9.00204 43.9688 9.34215C44.5837 9.67277 45.0662 10.1451 45.4162 10.7591C45.7757 11.3731 45.9554 12.0816 45.9554 12.8846C45.9554 13.6875 45.7709 14.3961 45.402 15.0101C45.0425 15.6241 44.5506 16.1012 43.9263 16.4412C43.3114 16.7719 42.6208 16.9372 41.8545 16.9372ZM41.8545 15.2084C42.214 15.2084 42.5498 15.1234 42.862 14.9534C43.1837 14.7739 43.4391 14.5094 43.6283 14.1599C43.8174 13.8103 43.9121 13.3853 43.9121 12.8846C43.9121 12.1383 43.7134 11.5668 43.3161 11.1701C42.9282 10.7638 42.4505 10.5608 41.8829 10.5608C41.3153 10.5608 40.8376 10.7638 40.4497 11.1701C40.0713 11.5668 39.8822 12.1383 39.8822 12.8846C39.8822 13.6309 40.0666 14.2071 40.4356 14.6133C40.8139 15.0101 41.2869 15.2084 41.8545 15.2084Z" fill="#A3A3A3"/>
<path d="M33.3077 16.9372C32.5509 16.9372 31.8697 16.7719 31.2643 16.4412C30.6589 16.1012 30.1812 15.6241 29.8312 15.0101C29.4906 14.3961 29.3203 13.6875 29.3203 12.8846C29.3203 12.0816 29.4953 11.3731 29.8453 10.7591C30.2048 10.1451 30.692 9.67277 31.3069 9.34215C31.9218 9.00204 32.6076 8.83203 33.3644 8.83203C34.1212 8.83203 34.8071 9.00204 35.422 9.34215C36.0368 9.67277 36.5193 10.1451 36.8693 10.7591C37.2288 11.3731 37.4085 12.0816 37.4085 12.8846C37.4085 13.6875 37.2241 14.3961 36.8551 15.0101C36.4957 15.6241 36.0037 16.1012 35.3794 16.4412C34.7645 16.7719 34.0739 16.9372 33.3077 16.9372ZM33.3077 15.2084C33.6671 15.2084 34.003 15.1234 34.3151 14.9534C34.6368 14.7739 34.8922 14.5094 35.0814 14.1599C35.2706 13.8103 35.3652 13.3853 35.3652 12.8846C35.3652 12.1383 35.1665 11.5668 34.7692 11.1701C34.3814 10.7638 33.9037 10.5608 33.336 10.5608C32.7684 10.5608 32.2907 10.7638 31.9029 11.1701C31.5245 11.5668 31.3353 12.1383 31.3353 12.8846C31.3353 13.6309 31.5197 14.2071 31.8887 14.6133C32.267 15.0101 32.74 15.2084 33.3077 15.2084Z" fill="#A3A3A3"/>
<path d="M25.7834 15.2357H29.0471V16.8085H23.7969V6.91797H25.7834V15.2357Z" fill="#A3A3A3"/>
<path d="M38.3906 17.8625C38.8938 19.3568 40.3082 20.4332 41.9742 20.4332H42.1816C44.2692 20.4332 45.9616 18.7433 45.9616 16.6586V16.4453H43.9123V16.6586C43.9123 17.6131 43.1374 18.3868 42.1816 18.3868H41.9742C41.4871 18.3868 41.047 18.1859 40.7325 17.8625H38.3906Z" fill="#A3A3A3"/>
<path d="M10.75 3L13.2045 5.4L4 14.4V9.60001L10.75 3Z" fill="#A3A3A3"/>
<path d="M5.30872 15.6781L10.75 20.9984L17.5 14.3985V9.59844L13.2045 5.39844L4 14.3985L4.00188 14.4003L13.2045 5.39844V12.2984L9.0625 16.3484V12.058L5.30872 15.6781Z" fill="#A3A3A3"/>
</g>
<defs>
<clipPath id="clip0_7577_4725">
<rect width="93.15" height="18" fill="white" transform="translate(4 3)"/>
</clipPath>
</defs>
</svg>
